<svg xmlns="http://www.w3.org/2000/svg" viewBox="0 0 44.09 82.35">
    <defs><style>.cls-1{fill:#fff;}</style>
    </defs><title>java</title>
    <g id="Layer_2" data-name="Layer 2">
        <g id="Layer_1-2" data-name="Layer 1">
            <path fill="#fff" className="cls-1" d="M32.63,67.26l-.38-1.58.22-.1a12.49,12.49,0,0,1,2.85-.82,11.21,11.21,0,0,1,2.33-.13,5.66,5.66,0,0,1,2,.43,3.2,3.2,0,0,1,1.95,2.42,5.2,5.2,0,0,1,.1,1.06q0,4.48,0,9c0,.07,0,.13,0,.2h-2l-.22-1.39-.19.15a6.92,6.92,0,0,1-1.87,1.15,5.11,5.11,0,0,1-1.79.36,5.39,5.39,0,0,1-1.9-.26,3,3,0,0,1-2.06-2.54,4.67,4.67,0,0,1,.05-1.77,3.59,3.59,0,0,1,1.46-2.16,5.85,5.85,0,0,1,2-.88,10.62,10.62,0,0,1,1.55-.27A20.58,20.58,0,0,1,38.83,70h.23a1.36,1.36,0,0,0,0-.18c0-.45,0-.91,0-1.36a2.14,2.14,0,0,0-.16-.73,1.81,1.81,0,0,0-1.3-1.1,4.79,4.79,0,0,0-1.55-.14,10.55,10.55,0,0,0-2.22.36C33.44,67,33.05,67.13,32.63,67.26Zm6.45,4.44-.1,0a15.16,15.16,0,0,0-2.53.11,3.9,3.9,0,0,0-1.25.4,1.79,1.79,0,0,0-.94,1.21,2.72,2.72,0,0,0,0,1.4A1.67,1.67,0,0,0,35.56,76a2.75,2.75,0,0,0,1.35,0A5.32,5.32,0,0,0,39,74.84a.28.28,0,0,0,.09-.25q0-1.34,0-2.69C39.09,71.84,39.08,71.78,39.07,71.7Z"/>
            <path fill="#fff" className="cls-1" d="M8.53,67.27,8.16,65.7l.12-.07a12.52,12.52,0,0,1,2.93-.86,11.26,11.26,0,0,1,2.31-.13,5.71,5.71,0,0,1,2,.43,3.19,3.19,0,0,1,2,2.52,5.18,5.18,0,0,1,.08.9q0,4.52,0,9c0,.06,0,.12,0,.19h-2l-.21-1.38-.16.11c-.25.19-.5.4-.76.57a5.24,5.24,0,0,1-2.47.93,5.5,5.5,0,0,1-2.34-.22,3,3,0,0,1-2.06-2.43,4.58,4.58,0,0,1,.06-2,3.65,3.65,0,0,1,1.72-2.25,6.39,6.39,0,0,1,2-.77,9.56,9.56,0,0,1,1.76-.23l1.64,0H15a1.33,1.33,0,0,0,0-.16c0-.4,0-.8,0-1.2a3.25,3.25,0,0,0-.09-.64,1.8,1.8,0,0,0-1.38-1.38A4.81,4.81,0,0,0,12,66.54a10.83,10.83,0,0,0-2.37.4ZM15,71.68H13.83a9,9,0,0,0-1.66.14,3.48,3.48,0,0,0-1.18.43,1.78,1.78,0,0,0-.84,1.18,2.83,2.83,0,0,0,0,1.08A1.73,1.73,0,0,0,11.48,76,2.87,2.87,0,0,0,13,75.94a5.47,5.47,0,0,0,1.89-1.06A.32.32,0,0,0,15,74.6c0-.9,0-1.8,0-2.7C15,71.83,15,71.77,15,71.68Z"/>
            <path fill="#fff" className="cls-1" d="M30.39,64.87c0,.21-.07.42-.11.62a56.58,56.58,0,0,1-1.72,6.76,46,46,0,0,1-2,5.24l-.07.15a.12.12,0,0,1-.13.08H23.15l-4-12.86H22c0,.07.06.15.09.23.75,2.42,1.51,4.84,2.25,7.27.21.69.35,1.4.52,2.1l.16.67a36.66,36.66,0,0,0,1.6-5.07,46,46,0,0,0,1-5.2Z"/>
            <path fill="#fff" className="cls-1" d="M0,80.87l.18-.11A6,6,0,0,0,1.81,79.4a3.69,3.69,0,0,0,.82-1.9,15.73,15.73,0,0,0,.13-2.24q0-4.66,0-9.31,0-2.7,0-5.39v-.24a24.56,24.56,0,0,1,2.75,0c0,.06,0,.13,0,.19q0,7.58,0,15.16a13,13,0,0,1-.21,2.4A5.05,5.05,0,0,1,3.69,80.9a7.43,7.43,0,0,1-2.25,1.4c-.17.07-.17.07-.29-.08L.1,81Z"/>
            <path fill="#fff" className="cls-1" d="M44.09,64.91c0,.29,0,.58,0,.87a.1.1,0,0,1-.06.07c-.06,0-.07,0-.07-.08s0-.32,0-.48,0-.11,0-.17h0l-.06.14c-.07.17-.13.35-.2.51a.16.16,0,0,1-.1.08s-.07,0-.08-.08-.13-.34-.2-.52l-.06-.14h0c0,.06,0,.11,0,.17s0,.31,0,.46,0,.11-.08.1a.11.11,0,0,1-.07-.08c0-.29,0-.57,0-.88h.26l.29.71a1.07,1.07,0,0,0,.08-.13l.16-.41C43.85,64.86,43.85,64.86,44.09,64.91Z"/>
            <path fill="#fff" className="cls-1" d="M42.46,65v.8c-.15,0-.17,0-.17-.08s0-.33,0-.5,0-.14,0-.22L42,65c0-.06,0-.12,0-.12h.66c.07,0,.07.06,0,.12Z"/>
            <path fill="#fff" className="cls-1" d="M14.9,42.07s-2.08,1.21,1.48,1.61a31.09,31.09,0,0,0,11.26-.48,19.75,19.75,0,0,0,3,1.47C20,49.23,6.54,44.4,14.9,42.07m-1.3-6s-2.33,1.72,1.23,2.09a43.88,43.88,0,0,0,14.53-.7,6.41,6.41,0,0,0,2.24,1.36c-12.89,3.77-27.23.31-18-2.75m11-10.1c2.62,3-.69,5.74-.69,5.74s6.66-3.44,3.6-7.74c-2.86-4-5-6,6.81-12.89,0,0-18.61,4.65-9.72,14.89M38.65,46.46s1.54,1.26-1.69,2.25c-6.15,1.86-25.58,2.42-31,.07-1.94-.84,1.7-2,2.85-2.26a7.71,7.71,0,0,1,1.88-.21c-2.16-1.52-13.95,3-6,4.27C26.41,54.11,44.28,49,38.65,46.46M15.9,29.93S6,32.28,12.39,33.13A74.71,74.71,0,0,0,25.47,33c4.09-.34,8.2-1.08,8.2-1.08a17.17,17.17,0,0,0-2.49,1.33C21.14,35.88,1.76,34.65,7.33,32a18.81,18.81,0,0,1,8.56-2m17.74,9.91c10.21-5.3,5.48-10.4,2.19-9.71a7.48,7.48,0,0,0-1.17.32,1.84,1.84,0,0,1,.87-.67c6.51-2.29,11.53,6.76-2.1,10.34a1.29,1.29,0,0,0,.21-.28M27.47,0s5.65,5.65-5.36,14.34c-8.83,7-2,11,0,15.49-5.15-4.65-8.93-8.74-6.39-12.56C19.44,11.7,29.76,9,27.47,0M16.9,54.22c9.79.63,24.84-.35,25.19-5,0,0-.68,1.75-8.09,3.15a80.52,80.52,0,0,1-24.78.38s1.25,1,7.69,1.44"/>
        </g>
    </g>
</svg>