<svg xmlns="http://www.w3.org/2000/svg" viewBox="0 0 200.51 149"><defs><style>.cls-1{fill:#fff;}</style></defs><title>Qa automation</title><g id="Layer_2" data-name="Layer 2"><g id="Layer_1-2" data-name="Layer 1"><path class="cls-1" d="M179.4,0H21.1A21.1,21.1,0,0,0,0,21.1V127.9A21.1,21.1,0,0,0,21.1,149H179.4a21.11,21.11,0,0,0,21.11-21.1V21.1A21.11,21.11,0,0,0,179.4,0ZM36.24,121.18l-2.31-6.35H23.3L21,121.18H17.44l9.73-23.41H30l9.73,23.41Zm18.56,0H52v-1.94a5.51,5.51,0,0,1-2,1.82,5.08,5.08,0,0,1-2.24.5,5,5,0,0,1-3.37-1,4.05,4.05,0,0,1-1.36-2.2,13.13,13.13,0,0,1-.25-2.68V105.56h2.77v9.83a6.28,6.28,0,0,0,.52,2.64,2.18,2.18,0,0,0,2.22,1.11,2.91,2.91,0,0,0,2.26-1A7.61,7.61,0,0,0,52,115.7V105.56H54.8Zm10.24.38c-1.68,0-2.76-.5-3.23-1.49a9.42,9.42,0,0,1-.72-4v-7.69h-2.3v-2.39h2.3v-4.49h2.77v4.49h3.25v2.39H63.86V116a11,11,0,0,0,.07,1.36,3.62,3.62,0,0,0,.21,1,1.21,1.21,0,0,0,1.26.77,1.73,1.73,0,0,0,1-.38l.87,2A3.48,3.48,0,0,1,65,121.56Zm20.41-4.36a7,7,0,0,1-2.65,3.12,8.16,8.16,0,0,1-4.64,1.24,8.06,8.06,0,0,1-4.61-1.24,7.12,7.12,0,0,1-2.63-3.12,10.06,10.06,0,0,1-.81-4,8.21,8.21,0,0,1,.74-3.54,9.23,9.23,0,0,1,.86-1.41,6.83,6.83,0,0,1,1.1-1.12,8.67,8.67,0,0,1,5.35-1.94,9.38,9.38,0,0,1,1.38.11,8.72,8.72,0,0,1,1.4.36,8.13,8.13,0,0,1,2.6,1.46,7.35,7.35,0,0,1,2,2.53,8,8,0,0,1,.75,3.55A10.06,10.06,0,0,1,85.45,117.2ZM83,87.76a29.13,29.13,0,0,1-11.41,2.12c-1,0-2.1,0-3.15-.12s-2.18-.21-3.36-.39a21.62,21.62,0,0,1-7.17-2.73,20.69,20.69,0,0,1-6.94-6.73Q46.1,72.62,46.1,60.45T50.93,41Q57.4,31,71.55,31a38.55,38.55,0,0,1,6.86.65,21.24,21.24,0,0,1,7.26,2.89A20.84,20.84,0,0,1,92.14,41Q97,48.61,97,60.45q0,9.49-2.57,15.09a25.62,25.62,0,0,1-5.86,8.53l5.06,4L89.78,93Zm26.74,33.42h-2.78v-9.83a4.66,4.66,0,0,0-.65-2.85,2.16,2.16,0,0,0-1.78-.8,2.64,2.64,0,0,0-1.94.9,7.21,7.21,0,0,0-1.38,2.15v10.43H98.4v-11a2.43,2.43,0,0,0-.7-1.82,2.35,2.35,0,0,0-1.7-.69,2.74,2.74,0,0,0-1.91.88A6,6,0,0,0,92.65,111v10.14H89.88V105.56h2.77v1.94a4.51,4.51,0,0,1,3.84-2.3,4.17,4.17,0,0,1,4.28,2.71,7.5,7.5,0,0,1,2-2.11,4.21,4.21,0,0,1,2.28-.6q2.67,0,3.63,1.59a8.08,8.08,0,0,1,1,4.25Zm18.32.38a4,4,0,0,1-4-2.29,17.91,17.91,0,0,1-2.85,1.73,6.59,6.59,0,0,1-2.77.56,5.3,5.3,0,0,1-3.71-1.25,4.28,4.28,0,0,1-1.36-3.31,4.71,4.71,0,0,1,2.19-4.22q2.17-1.43,6.56-1.43l1.58-.06q0-3.69-3.38-3.69-1.68,0-4.55,1.88l-1.31-2a9.87,9.87,0,0,1,6.16-2.27,7.88,7.88,0,0,1,2.68.47,4.71,4.71,0,0,1,2.24,1.84,6.64,6.64,0,0,1,.94,3.78V117a2.56,2.56,0,0,0,.34,1.49A1.5,1.5,0,0,0,128,119Zm8.61,0c-1.68,0-2.76-.5-3.23-1.49a9.42,9.42,0,0,1-.72-4v-7.69h-2.3v-2.39h2.3v-4.49h2.77v4.49h3.25v2.39h-3.25V116a11,11,0,0,0,.07,1.36,3.62,3.62,0,0,0,.21,1,1.21,1.21,0,0,0,1.26.77,1.73,1.73,0,0,0,1-.38l.87,2A3.48,3.48,0,0,1,136.63,121.56Zm9.51-.38h-2.77V105.56h2.77Zm-.12-20a1.88,1.88,0,0,1-1.28.54,1.88,1.88,0,0,1-1.83-1.84,1.74,1.74,0,0,1,.55-1.33,1.88,1.88,0,0,1,3.16,1.33A1.68,1.68,0,0,1,146,101.15Zm-4.31-27.82H116.16l-5.57,15.25H102.1l23.37-56.22h6.9l23.37,56.22h-8.5Zm23.65,43.87a7.08,7.08,0,0,1-2.64,3.12,8.19,8.19,0,0,1-4.65,1.24,8.08,8.08,0,0,1-4.61-1.24,7.12,7.12,0,0,1-2.63-3.12,10.23,10.23,0,0,1-.8-4,8.21,8.21,0,0,1,.73-3.54,8.51,8.51,0,0,1,.87-1.41,6.76,6.76,0,0,1,1.09-1.12,8.59,8.59,0,0,1,2.62-1.46,8.45,8.45,0,0,1,2.73-.48,9.38,9.38,0,0,1,1.38.11,8.46,8.46,0,0,1,1.4.36,8.13,8.13,0,0,1,2.6,1.46,7.35,7.35,0,0,1,2,2.53,8,8,0,0,1,.75,3.55A10.06,10.06,0,0,1,165.36,117.2Zm16.2,4h-2.77v-9.83q0-3.64-2.74-3.65a2.9,2.9,0,0,0-2.26,1,7.83,7.83,0,0,0-1.45,2.33v10.14h-2.77V105.56h2.77v1.94a4.91,4.91,0,0,1,4.22-2.3c2.09,0,3.44.58,4.07,1.73a8.57,8.57,0,0,1,.93,4.11Z"/><path class="cls-1" d="M116.49,117a1.89,1.89,0,0,0,.68,1.52,2.83,2.83,0,0,0,1.89.59,5.43,5.43,0,0,0,2.38-.67,5.88,5.88,0,0,0,2.21-2v-2.81q-4.12,0-5.65,1.08A3,3,0,0,0,116.49,117Z"/><polygon class="cls-1" points="24.57 112.06 32.66 112.06 28.61 101.8 24.57 112.06"/><path class="cls-1" d="M81.25,108.64a4.49,4.49,0,0,0-3.09-1,4.34,4.34,0,0,0-3,1,4.88,4.88,0,0,0-1.47,2.26,10,10,0,0,0-.28,1.21,6.4,6.4,0,0,0-.1,1.13,8.27,8.27,0,0,0,1,4c.68,1.25,2,1.88,3.86,1.88s3.21-.62,3.89-1.87a8.28,8.28,0,0,0,1-4,8.76,8.76,0,0,0-.36-2.37A4.78,4.78,0,0,0,81.25,108.64Z"/><path class="cls-1" d="M88.16,53.49a26.65,26.65,0,0,0-2.36-7.24,15.08,15.08,0,0,0-14.33-8.56A15.14,15.14,0,0,0,59,43.5q-4.62,5.8-4.62,16.72a50.71,50.71,0,0,0,.43,6.08,29.07,29.07,0,0,0,2,7.42A16.2,16.2,0,0,0,62,80.41a15,15,0,0,0,9.45,2.8,17.55,17.55,0,0,0,4.83-.66l-6-4.67,3.92-5.22,8.11,6.51q6.44-6,6.44-18.72A42.75,42.75,0,0,0,88.16,53.49Z"/><polygon class="cls-1" points="119.23 66.67 138.64 66.67 128.91 42.04 119.23 66.67"/><path class="cls-1" d="M161.16,108.64a4.49,4.49,0,0,0-3.09-1,4.35,4.35,0,0,0-3,1,4.88,4.88,0,0,0-1.47,2.26,12.26,12.26,0,0,0-.28,1.21,7.52,7.52,0,0,0-.1,1.13,8.27,8.27,0,0,0,1,4c.68,1.25,2,1.88,3.86,1.88s3.22-.62,3.9-1.87a8.28,8.28,0,0,0,1-4,8.79,8.79,0,0,0-.37-2.37A4.63,4.63,0,0,0,161.16,108.64Z"/></g></g></svg>