<svg xmlns="http://www.w3.org/2000/svg" viewBox="0 0 318.75 217.11" fill="#fff">
    <title>html css</title>
    <g id="Layer_2" data-name="Layer 2">
        <g id="Layer_1-2" data-name="Layer 1">
            <path d="M.73,53.18,13.45,197.36l57,19,57.41-19L140.61,53.18ZM113,99.77H46.05l1.49,18h64l-5,54.06-35.66,9.84v.1h-.4l-35.95-9.94-2.19-27.61H49.73L51,158.09l19.49,5.28,19.56-5.28,2.19-22.66H31.44l-4.66-53H114.6ZM109.44,0c0,.26,0,.53,0,.79V32.92h-11v-16l-.14-.06L90.71,28.46,83.06,16.68V32.91H72.28c0-.17,0-.34,0-.52V.43c0-.15,0-.29,0-.43H83.76l7,11.6L91.2,11l5.9-9.7c.26-.42.48-.85.72-1.27ZM32.16,0V32.92h-11V22h-10v10.9H.05V.79C.05.53,0,.26,0,0H11V10.85H21.15V0ZM67.38,0V11h-9.7V32.92h-11V11H37V.73c0-.24,0-.49,0-.73Zm58.45,0V22.06h15.51V32.91H114.82V0ZM177.4,52.21l12.85,145.68,57.82,19.22,57.83-19.22L318.75,52.21ZM292.65,81.65l-1.77,17.41-42.44,18.15-.11,0h41l-4.71,54-36.14,10.56L212.15,171l-2.36-27.2h18l1.18,14.1,19.36,4.9,20.14-5.67,1.36-22.68-61.22-.18v0l-.07,0-1.32-17,41.26-17.19,2.39-1H205.63L203.5,81.65ZM231.5,29h22.65a18.22,18.22,0,0,0,.16-5.18h-22.9V3.47c.75-.23,30.8-.29,33-.08V13l-24,.14v3.8c8,.19,15.92.09,23.95.21V36.84H231.5A47.18,47.18,0,0,1,231.5,29Zm69.62,8h-33c-.09-2.58-.07-5.17,0-7.85,1.93-.11,3.81,0,5.69,0s3.85,0,5.77,0l5.68,0L291,29v-5.1H268.25c-.22-.81-.19-19.27,0-20.44h32.92c.09,3.19.14,6.36,0,9.67H277l.14,4,23.89.16C301.26,18.31,301.34,34.88,301.12,36.91ZM194.88,36.8V3.35c10.84-.12,21.65,0,32.45-.05a61.4,61.4,0,0,1,0,10.16l-22.52.09c0,5-.1,9.85-.15,14.83,3.86,0,7.6.09,11.35.11s7.52,0,11.39,0c.13,2.79.05,5.52,0,8.24C226.86,36.92,196,37,194.88,36.8Z"/>
        </g>
    </g>
</svg>