<svg xmlns="http://www.w3.org/2000/svg" viewBox="0 0 158.8 179.11" fill="#fff">
    <title>nodejs</title>
    <g id="Layer_2" data-name="Layer 2">
        <g id="Layer_1-2" data-name="Layer 1">
            <path fill="#fff" d="M79.37,179.11a14,14,0,0,1-6.9-1.84l-21.93-13c-3.27-1.84-1.67-2.48-.6-2.84a43.37,43.37,0,0,0,9.91-4.51,1.6,1.6,0,0,1,1.64.14l16.84,10a2.09,2.09,0,0,0,2,0L146,129.18a2.12,2.12,0,0,0,1-1.78V51.62a2.12,2.12,0,0,0-1-1.81L80.36,12a2,2,0,0,0-2,0L12.76,49.85a2.06,2.06,0,0,0-1,1.81V127.4a2,2,0,0,0,1,1.74l18,10.38c9.78,4.87,15.75-.85,15.75-6.65V58.09a1.88,1.88,0,0,1,1.92-1.88h8.32a1.9,1.9,0,0,1,1.91,1.88v74.82c0,13-7.1,20.47-19.44,20.47-3.8,0-6.79,0-15.1-4.12L6.9,139.34a13.8,13.8,0,0,1-6.9-12V51.62a13.85,13.85,0,0,1,6.9-12L72.47,1.76a14.37,14.37,0,0,1,13.79,0l65.65,37.92a13.84,13.84,0,0,1,6.89,12V127.4a13.91,13.91,0,0,1-6.89,12L86.26,177.27A13.91,13.91,0,0,1,79.37,179.11Zm53-74.67c0-14.18-9.6-18-29.75-20.61C82.21,81.12,80.15,79.74,80.15,75c0-4,1.74-9.21,16.84-9.21,13.47,0,18.45,2.92,20.51,12a1.9,1.9,0,0,0,1.85,1.5h8.53a1.89,1.89,0,0,0,1.39-.61,2,2,0,0,0,.49-1.45c-1.31-15.68-11.72-23-32.77-23-18.73,0-29.89,7.9-29.89,21.15,0,14.36,11.13,18.34,29.08,20.12,21.5,2.1,23.17,5.26,23.17,9.49,0,7.32-5.9,10.45-19.73,10.45-17.38,0-21.18-4.37-22.46-13a1.88,1.88,0,0,0-1.88-1.6h-8.5a1.87,1.87,0,0,0-1.88,1.88c0,11.06,6,24.24,34.76,24.24,20.76,0,32.7-8.24,32.7-22.53Z"/>
        </g>
    </g>
</svg>