<svg xmlns="http://www.w3.org/2000/svg" viewBox="0 0 82.76 82.76">
    <defs><style>.cls-1{fill:#fff;}</style></defs>
    <title>js</title>
    <g id="Layer_2" data-name="Layer 2">
        <g id="Layer_1-2" data-name="Layer 1">
            <path fill="#fff" className="cls-1" d="M73.9,0h-65A8.87,8.87,0,0,0,0,8.87v65a8.87,8.87,0,0,0,8.87,8.87h65a8.87,8.87,0,0,0,8.87-8.87v-65A8.87,8.87,0,0,0,73.9,0ZM45,64.55c0,8.05-4.73,11.73-11.62,11.73-6.23,0-9.83-3.21-11.68-7.11l6.34-3.82c1.22,2.16,2.33,4,5,4s4.18-1,4.18-4.9V38H45V64.55Zm18.4,11.73c-7.22,0-11.9-3.44-14.17-7.94l6.34-3.66c1.66,2.72,3.84,4.73,7.67,4.73,3.21,0,5.28-1.61,5.28-3.84,0-2.66-2.11-3.6-5.67-5.17l-1.94-.83c-5.62-2.38-9.33-5.39-9.33-11.73C51.62,42,56.07,37.56,63,37.56c5,0,8.5,1.72,11,6.23L68,47.66c-1.33-2.38-2.77-3.33-5-3.33s-3.71,1.44-3.71,3.33c0,2.33,1.44,3.27,4.78,4.73l1.94.83C72.6,56.05,76.32,59,76.32,65.45c0,7-5.51,10.83-12.88,10.83Z"/>
        </g>
    </g>
</svg>